Coordinates
version=1
nRows=26
nColumns=22
inDegrees=yes

Units are S.I. units (second, meters, Newtons, ...)
If the header above contains a line with 'inDegrees', this indicates whether rotational values are in degrees (yes) or radians (no).

endheader
time	pelvis_tilt	pelvis_list	pelvis_rotation	pelvis_tx	pelvis_ty	pelvis_tz	hip_flexion_r	hip_adduction_r	hip_rotation_r	knee_angle_r	ankle_angle_r	subtalar_angle_r	hip_flexion_l	hip_adduction_l	hip_rotation_l	knee_angle_l	ankle_angle_l	subtalar_angle_l	lumbar_extension	lumbar_bending	lumbar_rotation
      2.13000000	      1.46417403	     -4.37453645	     58.09799824	      0.92309359	      0.98012732	      0.71782357	     27.81683754	      3.18758545	      3.52751193	    -17.65673422	      0.63206102	     13.43647221	    -13.66130228	      2.12138915	      6.81914952	    -18.94752393	      7.83768985	      1.73917873	     -1.07550068	     -0.85914608	     -9.80964387
      2.14000000	      1.62903819	     -4.56848587	     58.53040426	      0.92967625	      0.98133029	      0.70758354	     27.71259485	      3.34667946	      3.39671793	    -18.60613340	      0.36675676	     13.37789842	    -13.25712691	      1.73936227	      6.14668451	    -20.48817665	      6.15977185	      2.77451285	     -0.70315495	     -0.48081116	     -9.56039325
      2.15000000	      1.78862804	     -4.72019542	     58.94381269	      0.93614819	      0.98267109	      0.69743647	     27.54354610	      3.47180614	      3.23059304	    -19.51034074	      0.26821222	     13.33084836	    -12.72955903	      1.36679509	      5.29046898	    -22.22782231	      4.32086958	      3.81623900	     -0.38221486	     -0.13760681	     -9.29967805
      2.16000000	      1.94597918	     -4.83636703	     59.35784344	      0.94248968	      0.98412163	      0.68744885	     27.29623834	      3.57064162	      3.02343750	    -20.32954164	      0.32489154	     13.22531868	    -12.06405430	      0.97891622	      4.28278609	    -24.17326389	      2.35652264	      4.84492464	     -0.11748066	      0.16953413	     -9.03505636
      2.17000000	      2.10955256	     -4.93708313	     59.78314419	      0.94870494	      0.98564300	      0.67769394	     26.96965471	      3.67160237	      2.81333074	    -21.02758064	      0.48135112	     13.02548183	    -11.24198606	      0.53788576	      3.13688660	    -26.32428523	      0.31843268	      5.74972055	      0.09606705	      0.45593700	     -8.78879792
      2.18000000	      2.27471788	     -5.02262702	     60.22944020	      0.95478248	      0.98719288	      0.66820720	     26.57360501	      3.77073353	      2.55767355	    -21.61000024	      0.74555275	     12.69044552	    -10.26496301	      0.04005243	      1.92780861	    -28.67373725	     -1.71547071	      6.54644553	      0.25491403	      0.71455245	     -8.57236766
      2.19000000	      2.44751597	     -5.10739140	     60.71283976	      0.96072373	      0.98873600	      0.65900166	     26.11046490	      3.88181008	      2.27466793	    -22.05760800	      1.07593232	     12.23441566	     -9.13322363	     -0.53855978	      0.70197910	    -31.20318329	     -3.65396227	      7.13782703	      0.36811926	      0.95306044	     -8.38722432
      2.20000000	      2.64626980	     -5.19580402	     61.24524738	      0.96651384	      0.99026704	      0.65006982	     25.56823227	      4.02267286	      1.98507132	    -22.35212671	      1.44651480	     11.75318185	     -7.86525511	     -1.21340654	     -0.47166250	    -33.89024751	     -5.42892220	      7.47030910	      0.43147974	      1.19440158	     -8.25510612
      2.21000000	      2.83323276	     -5.29545612	     61.81039164	      0.97211767	      0.99166391	      0.64142913	     25.03825404	      4.15680905	      1.59813588	    -22.60273641	      1.85672062	     11.03640436	     -6.44188518	     -1.93963719	     -1.55964763	    -36.72912990	     -6.91631858	      7.46309528	      0.46983031	      1.40708988	     -8.12578520
      2.22000000	      3.09425913	     -5.39490929	     62.44404096	      0.97754516	      0.99307647	      0.63298672	     24.38879108	      4.35081554	      1.20373101	    -22.66665423	      2.25748913	     10.55520589	     -4.94556378	     -2.78165399	     -2.48874494	    -39.65443929	     -8.09960445	      7.28749246	      0.43925344	      1.67156744	     -8.05556368
      2.23000000	      3.31895393	     -5.49371755	     63.09879631	      0.98277615	      0.99433972	      0.62479922	     23.77114935	      4.51041505	      0.73328292	    -22.71468412	      2.69070892	      9.83954295	     -3.33990228	     -3.61106723	     -3.27723949	    -42.61756903	     -8.94302364	      6.54843617	      0.39451892	      1.87433763	     -7.94831108
      2.24000000	      3.60324712	     -5.58303550	     63.80284485	      0.98776305	      0.99559355	      0.61676508	     23.08046332	      4.70923132	      0.23999315	    -22.65699575	      3.11094332	      9.37205547	     -1.70259812	     -4.48344002	     -3.84643226	    -45.55740956	     -9.37433107	      5.77711213	      0.28715920	      2.12664427	     -7.86012950
      2.25000000	      3.90204725	     -5.65597595	     64.52983697	      0.99251188	      0.99681597	      0.60886963	     22.35570972	      4.90998570	     -0.26946351	    -22.53737551	      3.53601999	      9.01943196	     -0.04331358	     -5.32958277	     -4.21884266	    -48.40523423	     -9.41480502	      4.90589207	      0.14118590	      2.38079262	     -7.75661426
      2.26000000	      4.20372653	     -5.70667513	     65.26376360	      0.99702085	      0.99802443	      0.60106535	     21.60238937	      5.10237581	     -0.78175910	    -22.37135656	      3.95958077	      8.78977551	      1.61159344	     -6.12027724	     -4.43148714	    -51.09718563	     -9.08615702	      3.98985597	     -0.03385137	      2.62899105	     -7.62720726
      2.27000000	      4.49142423	     -5.72706314	     65.98286132	      1.00131236	      0.99923027	      0.59332909	     20.82269909	      5.27486250	     -1.26670506	    -22.16914355	      4.39757376	      8.66767602	      3.23515884	     -6.82424914	     -4.52594874	    -53.58179560	     -8.42790138	      3.02856335	     -0.23217097	      2.85202930	     -7.45160041
      2.28000000	      4.75623707	     -5.71000374	     66.66568055	      1.00541199	      1.00045177	      0.58564965	     20.02069453	      5.41967314	     -1.72784168	    -21.94680899	      4.82376550	      8.65285339	      4.80212443	     -7.43171345	     -4.56105001	    -55.82239117	     -7.51099945	      2.10499884	     -0.45392756	      3.03890237	     -7.21589766
      2.29000000	      4.98639096	     -5.65546150	     67.30189016	      1.00933748	      1.00169211	      0.57802402	     19.19978456	      5.53074063	     -2.14244085	    -21.70726650	      5.22818513	      8.72047765	      6.30115509	     -7.93330236	     -4.57421522	    -57.79503602	     -6.42382144	      1.19766412	     -0.69200131	      3.17923720	     -6.92584665
      2.30000000	      5.17133628	     -5.56029860	     67.87928619	      1.01312511	      1.00296596	      0.57043276	     18.35551755	      5.59661610	     -2.53163869	    -21.44566394	      5.61067268	      8.85154884	      7.71218982	     -8.32053288	     -4.59658052	    -59.47603876	     -5.24357874	      0.31647495	     -0.94211446	      3.25682299	     -6.55197520
      2.31000000	      5.33537931	     -5.42688523	     68.41542622	      1.01678099	      1.00427971	      0.56285733	     17.46957122	      5.63895865	     -2.91800028	    -21.14519622	      5.95235578	      8.99152675	      9.02678187	     -8.62378533	     -4.62711403	    -60.86826740	     -4.02027893	     -0.36916461	     -1.20943536	      3.29988971	     -6.13935840
      2.32000000	      5.42929568	     -5.26053428	     68.87818897	      1.02033710	      1.00558503	      0.55537233	     16.58953581	      5.62454147	     -3.22642108	    -20.85420417	      6.32099958	      9.19511098	     10.25964912	     -8.80266926	     -4.71810174	    -61.96579499	     -2.86364492	     -1.23891322	     -1.47961044	      3.25538131	     -5.66476931
      2.33000000	      5.51789139	     -5.06932113	     69.31443272	      1.02379728	      1.00690218	      0.54790004	     15.66984922	      5.60284534	     -3.57416144	    -20.51851261	      6.63884578	      9.34607516	     11.40070342	     -8.93364411	     -4.83255222	    -62.78178861	     -1.72748371	     -1.84363755	     -1.76155170	      3.19413764	     -5.17403136
      2.34000000	      5.55583704	     -4.85847234	     69.69676216	      1.02717866	      1.00818630	      0.54048678	     14.74885596	      5.54158642	     -3.87996492	    -20.17342737	      6.96402483	      9.51248313	     12.46253863	     -8.97904757	     -5.01482085	    -63.31082927	     -0.66173866	     -2.49465573	     -2.04002171	      3.06963197	     -4.64918035
      2.35000000	      5.56405821	     -4.64585843	     70.04604935	      1.03047267	      1.00940546	      0.53312839	     13.83745226	      5.46112077	     -4.17298305	    -19.81958921	      7.27472310	      9.65810641	     13.46574576	     -8.97496439	     -5.25370794	    -63.57237268	      0.34054214	     -3.07511146	     -2.30626708	      2.91061876	     -4.11308655
      2.36000000	      5.55038426	     -4.44952430	     70.37340854	      1.03365591	      1.01051690	      0.52583864	     12.95956139	      5.37082703	     -4.45964073	    -19.47198035	      7.57413885	      9.77872249	     14.43552053	     -8.94123889	     -5.54269004	    -63.58666908	      1.29230785	     -3.55852647	     -2.54883018	      2.73432044	     -3.56830243
      2.37000000	      5.51273517	     -4.28189802	     70.68927752	      1.03674754	      1.01151511	      0.51858364	     12.11469300	      5.27409917	     -4.71869088	    -19.10948644	      7.85121692	      9.90605060	     15.38252424	     -8.89285237	     -5.89560436	    -63.35543265	      2.18958592	     -3.99468801	     -2.74949309	      2.54153105	     -3.05616592
      2.38000000	      5.45608654	     -4.19103723	     71.00931048	      1.03968810	      1.01229838	      0.51139362	     11.37269500	      5.18356368	     -4.98070841	    -18.76925364	      8.09335061	      9.94156963	     16.37622036	     -8.84457064	     -6.27889221	    -62.92145222	      3.07018980	     -4.19162088	     -2.86498249	      2.36181475	     -2.56901288
